<?xml version="1.0" encoding="UTF-8"?>
<svg id="bj" data-name="Layer 64" xmlns="http://www.w3.org/2000/svg" viewBox="0 0 289.1266 342.5968">
  <defs>
    <style>
      .bn {
        fill: none;
        stroke: #123929;
        stroke-miterlimit: 10;
        stroke-width: .5px;
      }
    </style>
  </defs>
  <g id="bk" data-name="Layer 65">
    <g id="bl" data-name="blob done">
      <path class="bn" d="m145.2283,278.0443c-.2196.2928-.766,4.5957,2.5532,6.1277s4.0851.2553,4.0851-1.7872-6-5.1915-6.6383-4.3404Z"/>
      <path class="bn" d="m140.7176,271.7464c-1.3605,1.6903,2.954,13.1546,4.9226,14.2673,1.9574,1.1064,6.2263,2.371,7.4178-.2673,1.1915-2.6383,3.3247-5.6189-6.8936-13.4043-1.7872-1.3617-2.6383-4.0851-5.4468-.5957Z"/>
      <path class="bn" d="m140.7602,263.023c-1.5107,2.9625-1.5603,4.6467-3.071,7.6093-.5218,1.0233-1.0541,2.0835-1.1256,3.2299-.081,1.2995.438,2.5527.947,3.751,1.0215,2.4049,2.043,4.8099,3.0645,7.2148.4414,1.0391.9003,2.1049,1.6932,2.9085,1.0571,1.0714,2.585,1.5452,4.079,1.728,3.1126.3809,6.4918-.4518,8.646-2.7306,2.1542-2.2788,2.7121-6.1145.8134-8.6102-1.389-1.8256-2.8658-3.2799-4.7487-4.5901-2.7008-1.8793-5.3957-4.2815-5.8363-7.5422-.1251-.9257-.1435-1.8762-.4403-2.7618s-.9503-1.7269-1.8639-1.9214-2.1573,1.7148-2.1573,1.7148Z"/>
      <path class="bn" d="m127.9517,272.5975s6.383,4.1532,6.7234,6.0766c.3404,1.9234.441,6.8341,1.8801,8.634,1.439,1.8,9.6944,5.4596,14.4603,3.417s8.766-6.8936,9.3617-8,2.4681-3.0282-4-7.3013c-6.4681-4.2731-9.096-8.1029-9.1012-10.4859-.0052-2.383-.5158-4.766,6.2927-8.3404,6.8085-3.5745,6.2979-17.4468,6.2979-17.4468,0,0,1.8723-6.2979,9.7872,2.9787,7.9149,9.2766,10.8085,3.0638,10.8085,3.0638,0,0,1.1915-5.7872,3.4894-7.5745,2.2979-1.7872,9.1915-2.2979,9.1915-2.2979,0,0,3.4894-.9362,5.1064,6.1277,0,0,3.0638,1.7872,4.8511,5.3617,1.7872,3.5745,7.5745,13.3617,5.8723,15.4894-1.7021,2.1277-5.7872,3.234-4.8511,7.1489.9362,3.9149,5.8723,14.2128,6.8085,16.5106.9362,2.2979.1702,10.3404.8085,11.7447s6.383,6.5106,6.8936,7.6596,3.5745,12.383,4.8511,13.0213,6.2553-1.9149,10.9787-11.3617c0,0-.766-7.4043,2.0426-10.9787,2.8085-3.5745,4.5957-2.6809,7.4043-5.234,2.8085-2.5532,1.5319-9.1915-5.234-8.2979-6.766.8936-6.1277,2.0426-9.0638-2.0426-2.9362-4.0851,0-7.1489-.2553-8.8085s-7.4043-6.766-5.8723-9.3191c1.5319-2.5532,5.8723-5.8723,8.9362-5.234,3.0638.6383,10.2553,3.9149,15.7872,1.1915,5.5319-2.7234,9.0213-10.2128,10.1277-10.383s6.1277-3.7447,1.3617-8.3404-5.8723-5.5319-5.617-8.766c.2553-3.234-1.1064-11.0638-3.4043-14.7234-2.2979-3.6596-.8511-5.4468-.4255-6.8936.4255-1.4468,3.617-3.9787,3.8298-5.5319.1969-1.4373-2.3251-12.9302-2.2979-14.2128.0181-.8509-1.0253-9.5191,14.5532,4,2.3492,2.0386,8.2128,2.1277,11.9787-3.3617s-1.5957-5.4894-2.2766-8.8936-1.5319-13.1915.6809-17.7021c2.2128-4.5106,2.0426-12.1702,1.0213-14.2128-1.0213-2.0426-11.0638-5.1064-14.2128-5.7021s-14.4681-2.9787-18.7234-8.766c-4.2553-5.7872-5.2766-10.2128-6.4681-12.3404-1.1915-2.1277-12.4255-12.0851-15.0638-11.234s-2.2128,4.8511-8.5106,6.1277c-6.2979,1.2766-10.0426,2.1277-15.4894,1.7872-5.4468-.3404-10.9787-.0851-14.1277-5.1915-3.1489-5.1064-3.234-5.7872-11.4043-5.9574,0,0-3.3191-1.1915-4.9362-1.7872s-6.1277,2.0426-7.7447,2.4681c-1.617.4255-4.0851-1.3617-6.2979-1.5319s-5.8723,12.6809-6.7234,15.8298c-.8511,3.1489-7.234,11.0638-7.4894,13.7872s6.7162,12.5957,4.507,14.1277-6.4645.8511-10.2091-.1702c-3.7447-1.0213-9.4468,3.8723-9.8723,6.2979-1.7341,9.8848,6.7234,16.766,12.3403,19.9575,1.3868.788-3.6606,17.2113-5.8723,17.8297-3.1187.8721-5.617,10.383-5.7872,11.9149s-1.7021,9.0213-3.5745,11.9149c-1.8723,2.8936-1.0213,8.3404,1.8723,10.5532,2.8936,2.2128-.1702,7.1489.8511,7.8298s2.2128,2.2128,7.4894,3.234c5.2766,1.0213-3.7447,5.9574,6.2979,14.9787,0,0,1.7234.6596,1.4681,2.6383-.2553,1.9787-3,10.2766-4.7234,10.6596-1.7234.383-9.2766-.5532-7.383,4.0638Z"/>
      <path class="bn" d="m182.0368,200.4698s8.2553-8.4255,11.5319-8.9787c3.2766-.5532,6.7948-1.617,18.3404,12.3404.9311,1.1256,2.0851,6.2128-5.7021-1.2766-7.7872-7.4894-14.3349-2.3745-18.5957-.5106-1.3268.5804-7.7872,2-5.5745-1.5745Z"/>
      <path class="bn" d="m194.7176,194.5124c-.2923.5434-.5106,2.0426,0,2.4681s2.4681.8511,2.9362-1.234c.4681-2.0851-2.2799-2.4542-2.9362-1.234Z"/>
      <path class="bn" d="m143.3559,244.5124s4.2517-1.0213,5.1046,3.0638c.8529,4.0851-5.1046,3.0638-5.1046,3.0638,0,0-3.1489-3.3191,0-6.1277Z"/>
      <path class="bn" d="m197.7072,187.2783c-3.2992-.5339-10.8193,4.8936-14.3512,7.7021-3.5319,2.8085-5.5745.8936-6.5106,2.5532s2,8.1277,7.8723,8.2979c4.0004.116,4.8107-4.8085,11.3415-4.6383,0,0,6.7938-1.3321,16.5169,10.3404.7798.9362,5.1467-1.2512,2.0139-10.1277-.766-2.1702-8.4681-12.766-16.8828-14.1277Z"/>
      <path class="bn" d="m128.0581,222.3847c-.2331,2.8057,1.675,4.9276,1.5008,7.7375-.0727,1.1733-.3432,2.4255.1932,3.4715.8046,1.5691,2.898,1.8069,4.4502,2.6438,3.2101,1.7308,3.9358,5.9421,4.2187,9.5781s.7864,7.8169,3.8374,9.8148c3.0507,1.9977,7.3864.6473,9.8283-2.0611,2.3578-2.6151,3.3889-6.3693,2.6977-9.8218-.3966-1.9812-1.3242-3.8775-1.3109-5.898.0206-3.1433,2.5649-6.0005,5.6377-6.6628,3.0728-.6623,6.4135.7392,8.3419,3.2216,1.4582,1.8772,2.1587,4.2487,3.5766,6.1565s4.1025,3.3041,6.1547,2.1046c1.2487-.7298,1.8523-2.1693,2.6313-3.3879,2.4891-3.894,7.0744-5.806,11.377-7.4929,1.5894-.6231,3.294-1.2573,4.9632-.8991,1.8138.3892,3.2154,1.9144,3.9478,3.6188s.1458,4.7912,1.6232,5.852c3.9021,2.8017,6.4795,7.8524,8.9139,13.0595.7182,1.5363,1.1673,3.2158,2.1627,4.5889s2.5787,2.4619,4.2704,2.3422c2.1736-.1537,3.7024-2.1277,4.9358-3.9241,1.1197-1.6308,2.2394-3.2616,3.3591-4.8924.7248-1.0557,1.5508-2.1857,2.7868-2.5207,1.3335-.3615,2.705.3162,3.9206.973,2.2587,1.2204,4.539,2.4497,7.0051,3.1636s5.1662.8812,7.5699-.0206c3.5606-1.3358,5.8744-4.7104,7.9559-7.8931.7362-1.1256,1.5048-2.3889,1.3027-3.7186-.2065-1.3586-1.3539-2.3414-2.3658-3.2712-1.0119-.9298-2.0328-2.1336-1.8607-3.497.7238-5.733.2281-11.6721-2.5154-16.7578-.7415-1.3746-1.63-2.7271-1.8542-4.2728-.3738-2.5768,1.1661-5.014,2.7499-7.0807.7276-.9495,1.5127-1.9631,1.5834-3.1572.0791-1.3367-.7507-2.5295-1.409-3.6955s-.7389-2.4845-.4689-3.796c.8903-4.3244-.6904-8.8446-.2097-13.2335.1255-1.1459.4074-2.4634,1.4376-2.9804.9225-.4629,2.0378-.0602,2.9336.4526,2.3954,1.3711,4.2705,3.4718,6.1542,5.4892,1.8837,2.0173,3.8845,4.0328,6.4076,5.1518,2.5231,1.119,5.7069,1.1613,7.8414-.5886.7743-.6348,1.4006-1.5553,1.3663-2.556-.0455-1.3247-1.168-2.3109-1.9943-3.3473-2.2485-2.8201-2.5399-6.7747-1.8645-10.3177.6754-3.543,2.1949-6.8618,3.2483-10.3113,1.0534-3.4495,1.6255-7.2329.3918-10.6221-1.0265-2.82-4.3768-4.0948-7.2451-4.9774s-5.8558-1.3231-8.7383-2.158c-8.8754-2.5707-16.5449-9.0414-20.5731-17.3573-2.5045-5.1703-5.593-10.8041-11.1849-12.1214-1.1397-.2685-2.3515-.3959-3.4705-.0511-2.0641.636-3.3525,2.6973-5.2555,3.7189-1.8753,1.0067-4.1212.9014-6.2496.8991-3.7823-.004-7.5648.4009-11.2605,1.2052-2.0518-.1161-4.068-.0268-6.1198-.1429-3.4205-.1935-6.9888-.43-9.9414-2.1676-2.4369-1.434-4.2126-3.7561-6.45-5.485-5.2064-4.023-12.8767-4.3553-18.5842-1.0819-5.7075,3.2734-9.2601,9.8437-9.2179,16.4232.0076,1.1838-1.137,1.8632-2.1571,2.464s-2.1498,1.0612-2.9868,1.8984c-1.7973,1.7978-1.6783,4.8732-.4204,7.0822,1.2579,2.2091,3.3933,3.7539,5.464,5.2286,2.2596,1.6092,4.5193,3.2185,6.7789,4.8277.829.5904,1.7266,1.2868,1.8869,2.2919.1584.9934-.4683,1.9364-1.1492,2.6769-3.7313,4.0578-10.2106,5.2764-15.1611,2.8513-1.8458-.9042-3.4479-2.2348-5.2326-3.2543-1.7847-1.0195-3.8936-1.7315-5.8866-1.229-2.5657.6469-4.3248,3.2926-4.4126,5.9371s1.2577,5.1894,3.1528,7.036,4.299,3.0797,6.7362,4.1098c1.4291.604,2.9181,1.1691,4.0697,2.2088,1.1516,1.0397,1.9001,2.6996,1.3903,4.1649-.6107,1.7552-2.3308,2.8261-3.2727,4.4281-.8238,1.4011-1.4913,2.8873-2.157,4.37-1.0943,2.4373-2.1885,4.8746-3.2828,7.3119-1.1268,2.5097-2.2548,5.0224-3.1897,7.6097-2.4211,6.7002-2.6624,12.833-3.3027,20.5405Z"/>
      <path class="bn" d="m132.0959,160.7257c-.2753.2673-.4428.6286-.5438.9988-.3288,1.2058.0455,2.5771.9414,3.4485s2.277,1.2078,3.4732.8457c.7505-.4463,1.1255-1.3872,1.0278-2.2549s-.6103-1.6512-1.2755-2.2168c-.8788-.7474-2.5853-1.829-3.6232-.8213Z"/>
      <path class="bn" d="m218.2716,217.07c1.7835-2.3354.1057-10.9619-1.0539-16.3383-.7394-3.4283-2.7644-6.472-4.8838-9.2663-2.9874-3.9386-7.2821-7.3238-12.222-7.5098-3.9974-.1505-7.1412,1.8564-10.3943,4.1844-2.2633,1.6198-7.6977,4.7796-13.0438,6.1277-2.1357.5386-5.1375,2.8313-8.4669,4.3404-4.7452,2.1509-9.6909,3.707-9.766,4.8511-.1554,2.3702,8.6825-2.1324,12.4149-1.883,5.2121.3483,8.8024,6.6753,14.0151,6.3367,3.0249-.1965,5.4516-2.4908,8.2616-3.6276,3.8925-1.5747,8.6635-.6404,11.7923,2.134,1.1174.9909,5.8213,6.2695,7.3883,7.6037,1.6894,1.4384,4.5261,4.9221,5.9582,3.047Z"/>
      <path class="bn" d="m190.3904,184.0358c-2.2079,1.8046-2.6288,3.9357-5.1408,5.2851-3.9693,2.1322-10.4595,2.1752-14.595,3.9639-4.2006,1.8168-7.2555,3.9389-11.1284,5.9297-1.9474,1.001-5.0647,1.3668-5.1943,3.5525-.1202,2.0274,1.703,3.767,3.6827,4.2208s4.0439-.0757,5.9733-.71,3.8732-1.3857,5.9042-1.3833c5.7646.007,10.5993,5.9987,16.2727,4.9775,3.663-.6593,7.2025-4.6201,10.9129-4.9129,3.6828-.2906,5.9773,3.094,8.5068,5.7865,2.9208,3.109,5.8416,6.218,8.7624,9.327.8904.9478,1.8056,1.9144,2.9649,2.5035,1.1594.589,2.6314.7352,3.7266.0341,1.8317-1.1726,1.7068-3.8419,1.3652-5.9898-.6651-4.1819-1.3302-8.3638-1.9952-12.5457-.4732-2.9756-.9576-5.9898-2.1756-8.7456-1.2348-2.7938-3.1732-5.208-5.0896-7.5866-2.093-2.5978-3.6817-4.0181-5.617-6.8789-1.5393-2.2755-6.6245-2.075-10.9495-1.5439-1.9304.2369-3.9185,2.8627-6.1864,4.7163Z"/>
      <path class="bn" d="m187.2858,150.982c.373,2.8228,1.7662,5.3934,3.1346,7.8904.981,1.79,2.1494,3.7372,4.1057,4.3195,1.933.5753,4.1165-.501,5.1674-2.2224,1.0508-1.7214,1.0913-3.9238.4868-5.8479-.6045-1.9241-1.7914-3.6118-3.0866-5.1578-1.1735-1.4008-2.4911-2.7441-4.1475-3.5157-1.4003-.6523-3.4113-.9537-4.8154-.1249-1.3154.7764-1.026,3.2893-.8451,4.6588Z"/>
      <path class="bn" d="m185.7487,144.2445c5.4138-2.1231,12.1641-.038,15.4373,4.7685,3.2732,4.8066,2.7404,11.8514-1.2185,16.111-.7213.7761-1.5485,1.4776-2.0697,2.4s-.6638,2.1671.0022,2.9911c.9569,1.184,2.7909.8282,4.3067.687,3.3953-.3163,6.8123,1.0854,9.3715,3.3389,2.5592,2.2535,4.3265,5.2935,5.5374,8.4812.9971,2.6246,1.6714,5.4298,3.2951,7.7203,1.1671,1.6465,2.778,2.9526,3.8568,4.6582,1.0788,1.7057.3304,3.6349.1937,5.6485-.3392,4.9951,1.8258,9.7384,2.9641,14.4368.982,4.0529,1.756,8.9261-1.1858,11.8817-2.3976,2.4088-6.4838,2.3845-9.4778.7761-2.994-1.6084-5.1032-4.4573-6.9183-7.3306s-3.4768-5.9105-5.9506-8.2409-6.0056-3.8725-9.2878-2.9904c-3.9173,1.0528-6.9609,5.3118-10.9716,4.7055-2.3126-.3496-4.0239-2.2543-6.0259-3.4636-3.3897-2.0475-7.6282-2.0694-11.5441-1.4799-3.9159.5895-7.7706,1.7276-11.7303,1.7873-2.3253.0351-5.0466-.5821-5.9909-2.7073-.9501-2.138.424-4.5604,1.8901-6.3838,5.9254-7.3697,14.3721-12.6734,23.5843-14.8086,4.3453-1.0072,9.081-1.4335,12.5508-4.2364,4.0318-3.2569,5.2347-8.7966,6.1828-13.892-2.0624-4.7753-4.1338-9.4394-6.1963-14.2147-.7444-1.7236-1.4955-3.4694-1.794-5.323s.1532-3.7548,1.1889-5.3208Z"/>
      <path class="bn" d="m207.7336,176.9504c4.2393,2.6349,7.0516,7.0402,9.2519,11.5206,4.5373,9.2392,7.0757,19.428,7.64,29.7057.1026,1.8685.0912,3.9041-1.0443,5.3915-1.0564,1.3838-2.9316,1.9816-4.6624,1.7943-1.7308-.1873-3.3241-1.0643-4.6724-2.1657-3.0916-2.5255-5.0201-6.1615-7.4564-9.3239-2.4363-3.1624-5.858-6.069-9.8496-6.0133-4.5844.0639-8.5361,4.0169-13.1108,3.7109-2.1177-.1416-4.0483-1.1899-6.0156-1.9865-5.3536-2.1678-11.4237-2.5201-16.9921-.9863-1.8582.5118-3.7037,1.233-5.6309,1.2076s-4.0183-1.0475-4.5426-2.9022c-.6198-2.1926,1.1238-4.302,2.8226-5.8205,6.1646-5.5106,13.6145-9.5741,21.5851-11.7736,3.0092-.8304,6.1127-1.407,8.9547-2.6984,3.566-1.6204,6.5778-4.3661,8.5832-7.7241.8801-1.4737,1.4604-2.2199,3.0332-2.9691,1.7853-.8505,3.7472-1.1719,5.7161-1.0361,2.2513.1554,4.4743.8782,6.3905,2.0692Z"/>
      <path class="bn" d="m208.0639,275.4461c.73,1.7332,1.7561,3.3232,2.6218,4.9927,1.4732,2.8408,2.4819,5.9218,2.9742,9.0837.2569,1.6502.3827,3.3534,1.0641,4.8781.6855,1.534,1.8821,2.7713,3.055,3.9744,2.7339,2.8043,5.4678,5.6085,8.2018,8.4128.5939.6092,1.3425,1.2707,2.1774,1.1068.7968-.1564,1.2452-.9848,1.584-1.7227,1.2039-2.6223,2.4079-5.2446,3.6118-7.8668,1.0415-2.2685,2.1078-4.7532,1.5298-7.1815-.5835-2.4513-2.6934-4.2019-4.7398-5.6722s-4.2619-2.9749-5.2625-5.2875c-.707-1.634-.7126-3.4756-1.1173-5.2093-.6833-2.9271-2.5691-5.5543-5.1237-7.1381-1.6139-1.0005-3.4357-1.5363-5.3206-1.688-1.0949-.0881-2.436-.3031-3.4586.2099-3.329,1.6702-2.9979,6.2569-1.7972,9.1075Z"/>
      <path class="bn" d="m212.4939,270.6481c-.9015-.0285-1.8566.2486-2.4442.9329-.7894.9194-.7155,2.3338-.2026,3.4317s1.3841,1.9785,2.1435,2.9229c1.6771,2.0853,2.8539,4.5701,3.4048,7.1887.4588,2.1808.4928,4.4573,1.2201,6.5637,1.2345,3.5752,4.5586,6.3402,8.2989,6.9028,1.8693.2812,4.0238-.0747,5.1588-1.5863.9025-1.2019.9417-2.8941.4155-4.302s-1.5424-2.5766-2.6269-3.6173c-1.0844-1.0407-2.2617-1.9922-3.231-3.141-1.9482-2.309-2.9305-5.2522-4.1854-8.0003-1.4736-3.2269-3.979-7.1704-7.9517-7.2958Z"/>
      <path class="bn" d="m221.8282,136.5016c-.9297.7224-1.9656,1.7199-1.6998,2.8668.143.6174.658,1.0953,1.2355,1.3563s1.2184.3387,1.8477.4133c.8234.0977,1.6468.1953,2.4702.293,1.2171.1444,2.4506.2886,3.6642.1175s1.3047-.9799,2.0525-1.951c1.2031-1.5626.3847-3.9789-1.0213-5.3617-3.6031-3.5437-5.5883-.0348-8.549,2.2658Z"/>
      <path class="bn" d="m205.3726,165.4803c1.257,1.534,3.3534,2.0767,5.325,2.2913,1.9716.2146,4.0171.2023,5.8424.9776s2.4435,1.236,2.2521,3.2099c-.2267,2.3385-1.5,3.2234-.9574,4.4362,2.4955,5.5781,3.2234,12.6064,9.6277,16.8404,1.7331,1.1458-1.0669,7.0629-.4362,9.0426,1.1698,3.6717,1.5506,5.2873,2.1383,9.0957,1.0222,6.624,5.5828,12.8678,3.1115,17.521-1.3562,2.5535-17.2498,3.6386-21.2167-2.8048-1.9522-3.1709-4.2408-6.1222-6.659-8.9539s-5.6816-5.7577-9.289-4.8342c-4.2937,1.0991-7.9112,7.0568-12.2135,5.9918-2.4917-.6168-3.9179-3.1691-5.9325-4.7597-3.4135-2.695-8.2188-2.4411-12.5508-2.0554-4.5265.403-9.1261.8229-13.3521,2.4941-3.3147,1.3108-5.8498,7.8504-8.4192,5.3798-1.6596-1.5957,2.2021-4.6277,2.0426-6.4787-.7541-8.7479,4.2582-12.3923,7.065-15.6086,5.4855-6.2859,13.0614-10.7156,21.2297-12.4134,4.1359-.8596,8.6269-1.1268,12.0033-3.6654,3.649-2.7437,5.1387-7.6787,4.7457-12.2272s-2.3995-8.7946-4.6371-12.7741c-1.0752-1.9122-2.2229-3.8166-2.8217-5.927s-.585-4.5037.5775-6.3641c1.704-2.7269,5.3554-3.5645,8.5551-3.2455,4.8997.4886,9.5351,3.1945,12.3698,7.2208,2.8346,4.0262,3.1203,9.1427,2.317,12.1215-.3604,1.3362-1.9744,3.9553-.7174,5.4892Z"/>
      <path class="bn" d="m154.815,128.331c-.2661,3.2155.1068,7.4647-2.9079,8.6146-.65.2479-1.4001.2973-1.9344.7428-.944.7869-.6416,2.4065.2512,3.251s2.1498,1.1468,3.3212,1.5181c4.707,1.4922,8.8739,4.6319,11.6061,8.745.8638,1.3004,1.612,2.8439,1.2875,4.371-.2499,1.1762-1.092,2.1237-1.9027,3.0119-5.372,5.8856-10.744,11.7712-16.1159,17.6567-1.3292,1.4563-2.6599,2.9143-3.8744,4.4675-6.0173,7.6956-8.9022,17.3238-11.4482,26.755-1.3235,4.9027-2.6003,9.9196-2.3041,14.9892s2.4144,10.2843,6.6254,13.1225c1.0036.6764,2.1319,1.2136,3.3357,1.3385,1.0739.1115,2.1588-.1099,3.1808-.4579,4.4911-1.5295,7.7798-5.3438,11.8537-7.7754,4.0739-2.4316,10.2763-2.9298,12.7647,1.1097,1.0545,1.7118,1.1562,3.8279,1.8086,5.7296.6524,1.9018,2.3274,3.8039,4.3114,3.4778,1.1518-.1893,2.0408-1.075,2.8995-1.8656,5.0714-4.6696,11.6331-7.3144,18.0386-9.8628.4813-.1915.9992-.3864,1.5047-.2733.4726.1057.8447.4624,1.1671.8237,3.1047,3.4796,3.9878,8.6492,7.4968,11.7206,1.5715,1.3755,3.6079,2.2635,4.8069,3.9735,1.3243,1.8887,1.3448,4.3584,1.875,6.6034s2.0987,4.6681,4.4051,4.6278c4.6748-.0817,3.9485-8.6079,8.2588-10.4194.9816-.4125,2.091-.3884,3.1462-.2463,3.3879.456,6.5331,2.0366,9.8991,2.6331,3.366.5965,7.397-.1369,9.1055-3.0978.7632-1.3226.9451-2.8903,1.1112-4.4082.6146-5.6142,1.199-11.4823-.8338-16.7515-1.0382-2.6912-2.7496-5.1973-3.0027-8.0707-.3569-4.0512,2.2489-7.7548,2.8768-11.773,1.1424-7.3111-4.319-14.1391-4.5288-21.5359-.1298-4.5747,1.3889-11.5375,3.5201-11.6702,1.825-.1137,11.3963,10.3746,17.0501,16.2878.9083.95,1.9643,1.9679,3.2786,1.988,1.6135.0248,2.8681-1.5368,3.1847-3.1191s-.0337-3.2102-.1576-4.8192c-.609-7.9055,4.255-15.4287,3.8542-23.3475-.0538-1.0638-.2155-2.1577-.772-3.0659-.6518-1.0637-1.772-1.7527-2.9155-2.2514-5.5376-2.415-12.1959-1.2007-17.6169-3.8672-3.4202-1.6823-5.9502-4.7244-8.2237-7.7837-2.5118-3.3799-4.8462-6.8916-6.9902-10.516-2.7789-4.6975-6.4924-10.3075-11.9297-9.8329-2.5815.2254-4.7843,1.8565-7.0961,3.0273-6.2965,3.1891-13.6958,3.0322-20.7502,2.8032-3.9723-.129-8.0887-.2929-11.6407-2.0759-4.4324-2.2249-7.4964-6.7414-12.1344-8.4978-5.3345-2.0201-11.2464,1.0629-14.4938,5.7524-1.32,1.9063-3.9113,4.1304-4.2516,8.2428Z"/>
      <path class="bn" d="m158.6183,138.616c1.4734,3.3867,5.1861,5.0788,8.0369,7.4268,4.4647,3.6774,7.0568,9.696,6.116,15.4032-.0989.5997-.2539,1.2301-.6909,1.6525-1.0344,1-2.704.2217-4.1161-.0533-2.3946-.4665-4.8664.8051-6.4638,2.649-1.5975,1.8439-2.4804,4.1863-3.2764,6.4924-.5239,1.5177-1.0542,3.0953-2.1533,4.2657-1.7203,1.8318-4.4158,2.2655-6.6812,3.353-6.0416,2.8999-8.4982,10.0567-10.368,16.4921-1.8055,6.2143-3.6149,12.4447-4.7052,18.8235-.7649,4.4748-1.1142,9.3275,1.0511,13.3175.8404,1.5486,2.113,2.9512,3.7841,3.5097,1.8099.605,3.7959.1442,5.598-.4834,3.6193-1.2605,7.0046-3.1892,9.9343-5.66,1.1536-.9729,2.3641-2.0853,3.8699-2.1851,1.0199-.0676,2.0098.3517,3.0298.418,2.6749.1738,5.4196-2.0467,7.8357-.8857,1.982.9524,2.3724,3.5434,2.6161,5.7288s.9757,4.8022,3.1073,5.3422c1.4592.3697,2.9296-.4448,4.2152-1.2279,4.3149-2.6283,8.6298-5.2566,12.9447-7.8849,1.4322-.8724,2.9614-1.7732,4.6383-1.7665,2.8557.0113,5.0243,2.6292,6.1186,5.267,1.0943,2.6378,1.5905,5.5735,3.2639,7.8876,3.0176,4.173,8.7991,5.0432,13.9435,5.2769,6.0561.2751,12.1302.1549,18.1707-.3595,2.2159-.1887,4.9468-.8713,5.3977-3.0491.5839-2.8203,2.3648-5.4043,2.857-8.242s.1891-5.8691-1.2034-8.3901c-.5846-1.0583-1.3485-2.0116-1.9019-3.0865-2.2546-4.3796-.6278-9.6259.1122-14.4959.3112-2.0481.4553-4.1215.4304-6.1929-.0195-1.6214-.1449-3.2559-.6035-4.8112-1.1866-4.0249-4.444-7.0893-6.2527-10.8756-.2373-.4967-.4518-1.0148-.5081-1.5624-.1749-1.7004,1.1506-3.1306,2.2339-4.4529,2.775-3.3875,4.4781-7.6401,4.8084-12.0066.089-1.1767.1368-2.4926.9873-3.3106,1.1514-1.1073,3.0284-.656,4.5382-.134,1.4693.508,3.1195,1.1898,3.6234,2.6605.353,1.0302.0256,2.1508-.0886,3.2337-.2573,2.4401.6098,4.8926,1.9412,6.9536,1.3313,2.061,3.1069,3.7903,4.8666,5.5003,1.8795,1.8265,3.8395,3.7042,6.3073,4.5864,1.7398-1.1522,2.0416-3.7281,1.9743-5.8138-.0673-2.0857-.5854-4.1675-.336-6.2393.3316-2.7552,1.9713-5.1576,2.8823-7.7789.6086-1.7511.8912-3.6149.8292-5.4677-.0364-1.0876-.2059-2.2127-.8074-3.1195-.7896-1.1903-2.1839-1.8121-3.5272-2.2977-2.9974-1.0835-6.1286-1.7965-9.2996-2.1176-1.4695-.1488-2.9647-.2172-4.3705-.6703-2.7063-.8723-4.7564-3.0485-6.673-5.1488-2.2889-2.5083-4.2136-5.4252-6.1285-8.4252-2.6896-4.2138-5.3742-8.285-8.6713-12.0426-1.127-1.2843-2.4363-2.5539-4.1063-2.9156-2.4994-.5413-4.8814,1.073-7.2221,2.1032-3.3306,1.466-7.0425,1.8035-10.4986,2.9427-1.8244.6014-3.5724,1.4247-5.4152,1.9668-5.16,1.5178-10.6892.7428-15.9833-.2071-.8327-.1494-1.6836-.3096-2.4152-.7345s-1.333-1.1724-1.3486-2.0182c-4.0809-4.1239-9.1316-7.7419-14.6486-9.5375-.4366-.1421-.8965-.2775-1.3487-.1975-.4947.0876-.9058.419-1.2931.7391-2.0508,1.6948-4.1015,3.3895-6.1523,5.0843-.4791.3959-.963.7969-1.3355,1.2944-.3628.4847-.608,1.0453-.85,1.6003-.9965,2.2858-2.0039,4.6096-2.3255,7.0823s.7115,4.508,1.7062,6.7946Z"/>
      <path class="bn" d="m167.8145,119.8863c-4.0888,2.7252-6.7006,7.4369-7.1738,12.3279-.0891.9208-.105,1.8686.1744,2.7505.2645.8351.7791,1.5659,1.3117,2.2613,1.1754,1.5345,2.4776,2.9718,3.8892,4.2923,1.5307,1.4321,3.1931,2.7307,4.5903,4.2933,1.3771,1.5401,2.4728,3.3109,3.4531,5.1296,1.548,2.872,2.8385,5.9311,3.2937,9.1618.2922,2.0738.241,4.2138.8756,6.2097.8698,2.7355,3.0156,5.2731,2.5169,8.0999-.1253.7103-.4433,1.4174-1.0206,1.8498-.6023.4511-1.3924.5447-2.1425.6042-2.7209.2158-7.2052,1.5076-8.1768-.0879-.7838-1.2871,1.3538-7.1093-1.2834-9.5322-.4439-.4078-1.48-1.3009-2.0791-1.2352-.3227.0354-.6198.1913-.8906.3704-3.75,2.4804-2.8711,8.5817-6.0159,11.795-2.719,2.7781-7.5919,2.5157-10.188,5.409-2.65,2.9534-5.0799,5.7501-6.4447,9.4759-3.508,9.5764-6.7528,19.5901-5.9725,29.7589.193,2.5148.8407,5.331,3.0123,6.6138,2.359,1.3936,5.3923.3226,7.7388-1.0919,2.6159-1.577,4.9854-3.5619,6.9964-5.8609.651-.7442,1.2966-1.5461,2.195-1.959,2.5482-1.1711,5.3553,1.3174,8.1564,1.1802,2.4229-.1187,4.762-2.1977,7.0163-1.302,3.6636,1.4557,1.9433,8.4787,5.6778,9.7417,1.7698.5985,3.5917-.6211,5.0631-1.7724,3.3453-2.6176,6.6906-5.2352,10.0359-7.8528,1.2452-.9743,2.684-2.0045,4.2494-1.7824,1.1253.1597,2.0512.9434,2.8686,1.7332,3.3998,3.2852,6.1236,7.2669,7.9531,11.6262.8657,2.0628,1.6887,4.3948,3.6571,5.4578,1.1749.6344,2.5642.6928,3.8987.7369,3.7646.1246,7.5292.2491,11.2939.3737,3.1238.1034,6.2969.2017,9.3264-.567,3.0295-.7687,5.9506-2.5354,7.3873-5.3112,1.6288-3.147,1.094-6.984-.0444-10.3397-1.1384-3.3557-2.8393-6.5405-3.4992-10.022-.7725-4.0758-.0676-8.2636.1744-12.4048.242-4.1413-.0769-8.5854-2.5454-11.9193-2.1048-2.8426-5.8639-5.5795-4.7185-8.9259.6673-1.9494,2.7711-2.9322,4.3086-4.3038,2.3952-2.1367,3.51-5.5017,3.2608-8.7018s-1.7576-6.2199-3.8649-8.641c-.8233-.9458-1.8121-2.1105-1.3907-3.2915.4292-1.2027,2.0944-1.4658,3.2793-.9896s2.1062,1.4367,3.2251,2.0522c3.0602,1.6834,6.9193.5228,10.2915,1.432,3.8747,1.0447,6.6811,5.1271,6.2688,9.1188-.2182,2.1121-1.2142,4.2658-.5245,6.2739.9714,2.8283,4.7707,3.8403,5.8668,6.6226.2671.1404.5729-.1222.84.0182.832-.5056,1.2092-1.5305,1.2811-2.5014.0718-.9709-.1004-1.9443-.0797-2.9177.0558-2.6244,1.4814-4.988,2.5397-7.3901,1.0584-2.4022,1.7385-5.3102.3838-7.5587-1.1887-1.973-3.5662-2.8223-5.7583-3.5298-1.9403-.6262-3.9109-1.258-5.9483-1.3337-2.4675-.0918-3.1036.7815-5.1546-.5934-.7578-.508-2.7026-2.2103-3.2553-2.9362-5.6384-7.4047-10.6714-15.1019-16.0132-22.7234-.6781-.9675-1.617-2.2277-2.7527-2.5532-.9787-.2805-3.0123,1.201-3.9726,1.539-3.2632,1.1483-6.4128,2.6191-9.388,4.3839-3.0543,1.8117-7.3057,1.4754-10.0721,3.7022-.6114.4922-1.178,1.0528-1.8689,1.4252-1.2557.6766-2.7612.6518-4.1835.5452-5.5576-.4165-11.2311-1.9279-15.4879-5.5251-1.2707-1.0738-2.3905-2.3118-3.538-3.5163-2.069-2.1718-4.2548-4.2581-6.7522-5.9196-2.0902-1.3906-4.0615-2.8658-6.1506-1.4734Z"/>
      <path class="bn" d="m168.9861,124.6935c-2.3168,1.7211-3.9538,4.324-3.4629,7.1681s2.262,5.2762,3.9825,7.5935c1.3467,1.8139,2.6934,3.6278,4.0401,5.4416,1.0567,1.4233,2.1188,2.8552,2.9214,4.4358.9165,1.8049,1.4763,3.7674,2.271,5.6291.8389,1.9655,1.9383,3.8156,2.7039,5.8108,1.5296,3.9859,1.6601,8.3804,1.2579,12.6308-.1556,1.6442-.4492,3.4096-1.6247,4.5697-.8765.865-2.1065,1.2504-3.2927,1.5814-2.1448.5985-4.3476,1.1183-6.5723,1.0238-1.6934-.0719-3.3625-.4992-5.0575-.4915-3.887.0176-7.3623,2.277-10.5827,4.4538-2.691,1.819-6.2453,2.566-8.2536,5.1188s-3.2284,5.6272-4.2892,8.6972c-2.0107,5.8189-3.5487,11.801-4.5939,17.8681-.382,2.2176-.6959,4.5138-.1591,6.6992.5367,2.1853,2.1134,4.2561,4.3123,4.7344,3.266.7103,6.1321-2.1305,8.2317-4.731,2.0996-2.6005,4.8249-5.5155,8.1287-5.0094,1.1879.182,2.2625.8066,3.4296,1.0932,2.0318.4989,4.1631-.0583,6.1502-.7129,1.1457-.3775,2.4128-.7861,3.5206-.3088.5659.2438,1.014.6933,1.4355,1.1428,1.6075,1.7141,3.0491,3.5837,4.2979,5.5743.4094.6526.8298,1.3491,1.5078,1.715,1.5407.8315,3.3374-.4415,4.62-1.6332,1.7057-1.5848,3.4114-3.1696,5.1171-4.7544,1.4486-1.346,2.9257-2.7117,4.7042-3.5759s3.6459-.856,5.243.31c1.5834,1.156,2.6328,3.0745,4.3404,4.9787,2.617,2.9183,4.3986,6.9838,6.7863,10.0926.9855,1.2831,2.0723,2.5644,3.5338,3.2583,1.4173.6729,3.039.7239,4.6075.7629,3.4819.0864,6.9638.1729,10.4457.2593,2.461.0611,4.9695.1163,7.3305-.581s4.5936-2.2833,5.4322-4.5978c1.263-3.4859-.8844-7.1602-2.3684-10.5579-3.1006-7.0988-3.4199-15.1263-2.6017-22.8294.293-2.7589.6561-5.8087-.9465-8.0734-1.4597-2.0627-4.2558-2.9696-5.4381-5.203-1.6658-3.1465.7134-6.8482,3.0306-9.5512,2.3172-2.703,4.8617-6.2016,3.494-9.4886-.9107-2.1886-1.8806-4.2668-3.5736-5.926-1.5381-1.5074-3.0762-3.0147-4.6143-4.5221-.4671-.4578-.9521-.9445-1.1355-1.5723-.3633-1.2437.6472-2.5439,1.8565-3.0093,1.2092-.4654,2.5523-.3336,3.8468-.2767,2.5045.11,5.0637.0827,7.4785-.5903,2.6656-.7429,1.1477-2.1442.6322-2.9142-3.1961-4.7739-4.9131-10.225-8.1093-14.999-.8163-1.2193-2.7172-2.4216-4.0913-2.9362-1.3771-.5157-3.4024.4582-4.7778.9784-1.8673.7063-3.6331,1.6521-5.3927,2.5951-2.0096,1.077-4.0193,2.154-6.0289,3.2309-1.618.8671-3.2744,1.7644-4.4762,3.152-.4849.5599-.9039,1.206-1.5401,1.5854-1.546.9218-3.4589-.1058-5.1096-.8235-3.9942-1.7367-8.5103-1.5888-12.8357-2.0996-2.734-.3228-5.7298-1.1155-7.194-3.4468-1.3453-2.142-2.9422-4.1383-4.8278-5.8242-.7055-.6307-1.4166-1.2657-2.2302-1.7489-1.3325-.7914-4.6935-2.0031-5.5102-1.3964Z"/>
      <path class="bn" d="m234.2875,136.9059c.7781,1.9884,1.492,4.4463.1231,6.0849-.6262.7497-1.572,1.1456-2.4962,1.462-5.1742,1.7717-10.9077,1.8676-16.1383.27-.6775-.2069-1.3872-.444-2.0794-.2938-1.9335.4195-2.0386,3.1161-1.6826,5.0623.4794,2.621,1.2077,5.5952,3.5712,6.8253,1.1189.5824,2.4222.6557,3.6787.7663,3.6529.3214,7.4096,1.1162,10.3264,3.3386s4.7616,6.1747,3.6056,9.6548c-.7744,2.3313-2.6904,4.0597-4.3181,5.8995-1.6277,1.8399-3.0954,4.182-2.6544,6.5986.5011,2.7461,3.207,4.4477,4.7573,6.7691,3.9976,5.9859-.3782,14.4434,2.2889,21.1291.724,1.8148,1.9381,3.399,2.6918,5.2017,1.1041,2.6405,1.1599,5.5855,1.1652,8.4475.0037,2.0065-.0381,4.1221-1.0637,5.8468-2.2358,3.76-7.6047,3.7015-11.9473,3.1736-4.6443-.5646-9.6018-1.2653-13.0943-4.3783-1.9436-1.7324-3.2377-4.0547-4.6981-6.2102-1.5381-2.2702-3.2932-4.3933-5.2336-6.3309-1.0442-1.0427-2.2374-2.0787-3.6987-2.2846-1.6391-.231-3.2135.6297-4.6401,1.4692-4.2803,2.5187-9.4162,7.9988-12.6944,7.7982-2.5834-.1581-2.4129-4.6603-4.3582-6.3675-1.9453-1.7072-4.8002-2.6364-7.1788-1.616-.8774.3764-1.6815,1.0041-2.6335,1.077-.9609.0736-1.8551-.4333-2.7489-.7935-4.7183-1.9013-10.1793.2687-14.0888,3.5233-1.2828,1.0679-2.5117,2.2781-4.0753,2.8621-1.5636.5839-3.6073.3215-4.4885-1.096-.8093-1.3019-.3623-2.9863.1076-4.4454,1.6679-5.1787,3.3358-10.3575,5.0037-15.5362.4644-1.4419.9724-2.9533,2.0938-3.9717.7972-.724,1.827-1.1243,2.7636-1.6558,2.4291-1.3783,4.2189-3.6305,6.3569-5.4274,4.2303-3.5551,9.6973-5.2322,15.0603-6.5639,3.0903-.7674,6.2458-1.4656,9.0453-2.9828,2.7995-1.5172,5.252-4.0107,5.8962-7.129.5372-2.6006-.2246-5.2782-1.05-7.8021-2.6384-8.0684-6.0044-15.8987-10.0436-23.3649-.5991-1.1073-1.2262-2.2489-1.3335-3.5032-.1074-1.2544.4592-2.6626,1.6324-3.1193,2.2173-.8632,3.9688,1.9104,5.9435,3.2378,3.5404,2.3798,8.3735-.0552,12.5523.8029,3.7421.7684,6.692,4.1442,10.5068,4.3455,6.5918.3478,9.7568-7.123,14.6499-10.1595,2.0466-1.2701,5.0165-2.2324,7.4066-2.3393,3.9369-.1761,5.8902,2.3496,7.2112,5.7254Z"/>
      <path class="bn" d="m162.8015,243.8258c-.0414-1.7812,2.8417-1.5322,4.178-.3538,1.9201,1.6932,3.3103,3.9159,5.204,5.6386s4.635,2.9259,7.006,1.9604c4.7258-1.9244,4.0903-10.3162,8.9876-11.7491,3.5054-1.0257,6.5522,2.4778,8.533,5.5464,2.585,4.0046,5.2839,8.6582,4.032,13.2573-.3368,1.2372-.9507,2.3917-1.214,3.6466-.7566,3.6051,1.4524,7.0746,3.2524,10.2885,2.4621,4.3962,4.3174,9.1317,5.4968,14.0305,1.2654,5.2558,1.7529,10.6758,3.0399,15.9263,1.168,4.7651,2.9827,9.3432,4.7916,13.9037,1.6877,4.2548,3.3754,8.5095,5.0631,12.7643.336.847.6923,1.7244,1.3623,2.342,2.2103,2.0375,5.957-.2736,6.9023-3.1273s.3724-6.0114,1.1171-8.9239c1.1907-4.6572,5.5348-7.9932,6.7824-12.6355.6901-2.5678.3858-5.3973,1.5338-7.7956,1.235-2.5799,3.8725-4.1196,6.0542-5.9693,2.1818-1.8496,4.1181-4.7003,3.1875-7.4049-1.5531-4.5136-8.7104-3.6606-11.8332-7.2706-1.7114-1.9784-1.8079-4.8393-1.8175-7.4552-.0057-1.5678.0602-3.3174,1.1762-4.4186,1.1356-1.1205,2.9232-1.1425,4.5178-1.093,3.4844.1081,6.9688.2162,10.4532.3243,2.0033.0622,4.2499.034,5.6739-1.3763,1.5695-1.5543,1.4489-4.0714,2.0909-6.1849,1.0712-3.5265,4.3899-6.0936,5.1896-9.6914.9744-4.3837-2.03-8.519-4.2746-12.4085-3.3914-5.877-5.2879-12.4759-7.1532-18.9998-.462-1.6158-.9218-3.3599-.3577-4.943.4732-1.3281,1.5902-2.3097,2.3411-3.503,3.0349-4.8229-.5637-11.0452-.2671-16.7358.0264-.5055.0904-1.0275.3511-1.4613.6586-1.0961,2.3089-1.1537,3.424-.5277s1.8689,1.7209,2.7317,2.6648c5.0335,5.5072,14.9844,5.2765,19.7573-.458.6605-.7935,1.244-1.7129,1.3343-2.7414.0851-.9686-.275-1.9148-.6288-2.8204-1.115-2.8542-2.23-5.7084-3.3449-8.5626-.484-1.239-.365-2.4184-.2492-3.7435.4912-5.6212,1.3691-11.2085,2.6256-16.7094.4929-2.1581,1.0473-4.3804.6599-6.5599-.5575-3.1359-3.0294-5.6677-5.8783-7.0918s-6.0622-1.9105-9.2204-2.3225c-3.1583-.412-6.3707-.7804-9.3126-2.001-2.0683-.8582-3.9455-2.1157-5.7473-3.4453-3.8746-2.8593-7.6576-6.3837-8.8487-11.0494-1.049-4.1092-4.1144-7.4998-7.5397-10.0004-1.0503-.7668-2.1672-1.4408-3.198-2.2337-.9875-.7596-1.8934-1.6265-2.9285-2.3198-.9616-.6441-2.0196-1.1282-3.074-1.6053-.8436-.3817-1.7354-.7694-2.6579-.6892-1.0432.0907-1.9508.7745-2.6178,1.5817s-1.1491,1.7488-1.7492,2.6069c-.3482.498-.7559.9835-1.307,1.2396-.8669.4028-1.8793.1584-2.8116-.0526-.9874-.2235-1.985-.4018-2.9886-.5342-.543-.0716-1.1153-.1262-1.621.0841-.3489.1451-.6357.4047-.9149.6594-1.4126,1.2886-2.8251,2.5772-4.2377,3.8658-4.3218,3.9425-12.0359-1.0944-15.1941-6.0186-1.0981-1.7121-1.8047-3.6539-2.9284-5.3493s-2.8374-3.1955-4.8692-3.2915c-1.6917-.0799-3.2968.8203-4.9901.8546-2.787.0565-5.4001-2.2211-8.1114-1.5732-.917.2191-1.7195.7562-2.5671,1.1691-2.2698,1.1058-4.9626,1.3133-7.375.5682-2.2066-.6815-4.4031-2.1392-6.632-1.5345-1.9628.5325-3.2521,2.537-5.2071,3.0975-1.8255.5234-4.2846-.1165-5.2893,1.4951-.8584,1.3769.2267,3.0997,1.1925,4.4037.9658,1.3039,1.8145,3.2568.6565,4.3935-.3174.3115-.7375.4915-1.1465.6661-1.9103.8155-3.8515,1.693-5.3328,3.1491s-2.4318,3.6257-1.9007,5.6338c.2387.9027.763,1.7576.7138,2.69-.1006,1.9054-2.5111,3.1735-2.3818,5.0771.0446.657.4025,1.2679.4108,1.9264.0208,1.6499-2.0426,2.649-2.299,4.2791-.4429,2.8168,4.5189,4.1794,4.2012,7.013-.0918.8187-1.0588.9123-1.7715,1.3256-3.2081,1.86-6.2268,4.0464-8.9945,6.5144-1.8646,1.6628-3.7463,3.7729-3.616,6.2678.1032,1.9765,1.4679,3.6816,1.7831,5.6354.2475,1.5338-.1691,3.1179.0863,4.6504.2936,1.7616,1.4317,3.2479,2.5331,4.6537.871,1.1116,1.7482,2.23,2.8051,3.1667,1.6372,1.451,3.8206,2.6488,4.2999,4.7834.3852,1.7157-.5245,3.4819-1.7363,4.7561s-2.7274,2.2229-3.9802,3.4567c-2.6145,2.5747-3.8937,6.1749-5.0917,9.6433-.9006,2.6072-.7845,5.5819-1.0999,8.3221-.1156,1.0041-.2358,2.0257-.6429,2.9508-.9302,2.1137-3.1968,3.3434-5.4468,3.8635-2.25.5201-4.5931.4859-6.8643.9036-1.8102.3329-3.567.9542-5.1841,1.8333-1.5886.8637-3.0828,2.0228-3.9453,3.6121-.8625,1.5893-.9793,3.6676.0544,5.1512,1.2211,1.7524,3.6769,2.2303,5.7736,1.8228s3.9772-1.5166,5.931-2.3797c1.9538-.863,4.163-1.4927,6.2095-.8811,2.673.7988,4.3577,3.5529,4.8399,6.3007.2025,1.1537.2411,2.3433.6042,3.457,1.0497,3.2202,4.457,5.001,6.4151,7.7646,1.6567,2.3383,2.2229,5.3156,3.895,7.6429.9953,1.3852,2.3745,2.5306,3.0044,4.1157.942,2.3706-.095,5.1642-1.8873,6.9792s-4.209,2.8518-6.5768,3.8006c-1.2571.5037-2.5874,1.0461-3.3895,2.1373-1.1136,1.515-.8554,3.7079.1181,5.3165s2.5279,2.7643,4.0428,3.8779c1.2661.9306,2.865,2.4819,2.4033,3.9838-.2541.8265-1.0402,1.3574-1.7881,1.7913-3.5051,2.0334-7.3771,3.4324-11.3724,4.1089-1.6505.2795-3.4012.4675-4.7569,1.4495-1.0394.7529-1.7282,1.8985-2.2325,3.0788-.9568,2.2396-1.3398,4.7781-.74,7.1385.5998,2.3604,2.2658,4.5004,4.5437,5.3618,3.3004,1.2481,7.0297-.3444,9.7756-2.5604,2.7459-2.2159,4.9726-5.0692,7.94-6.9784,2.4584-1.5817,5.3705-2.4491,8.2937-2.4705,3.4726-.0255,6.9366,1.1102,10.3731.6102,4.0476-.589,7.4026-3.3338,10.5104-5.993,2.0257-1.7333,4.2373-3.9507,3.8819-6.593-.3076-2.2867-2.4123-3.8161-4.2016-5.2728-3.4972-2.8471-6.4008-6.4202-8.4722-10.426-.1545-.2987-.3082-.6392-.2064-.9597.0789-.2485.2944-.4245.4961-.5896,4.5545-3.7276,7.2416-9.2084,9.7925-14.5123.7578-1.5756,1.6243-2.8749,1.5836-4.6227Z"/>
      <path class="bn" d="m111.2507,294.7084c-.536,2.3657.3858,4.8879,1.9433,6.7474.3341.3989.7064.7813,1.1712,1.0153.7009.3529,1.5359.329,2.3024.1611,3.1627-.6926,5.3375-3.4826,7.5168-5.8769,1.9579-2.1511,4.1243-4.1122,6.4591-5.847.6315-.4692,1.358-1.1553,1.1033-1.8997-.2998-.8763-1.5487-.7988-2.4482-.5773-4.0066.9863-8.0138.9182-12.0648,1.4702-2.6932.367-5.3343,1.9437-5.9831,4.807Z"/>
      <path class="bn" d="m117.6503,295.2442c-.4406-.1814-.9505-.188-1.3956-.0181-.5514.1916-.7736.9289-.5369,1.4625s.8096.8562,1.3861.9483,1.1643-.0092,1.7389-.112c.3502-.0627.7132-.1314,1.0018-.3393s.4789-.5981.3444-.9274c-.1113-.2725-.4009-.4236-.6774-.5246-.8081-.295-1.337-.3382-2.1489-.579"/>
      <path class="bn" d="m270.8629,137.8874c2.2151.2648,4.1831,1.5322,5.897,2.9603,2.5453,2.1208,4.8146,4.8512,5.3552,8.1199.2268,1.3712.1385,2.7725.0495,4.1595-.3929,6.1242-.7859,12.2484-1.1788,18.3726-.2395,3.7323-.4356,7.6823,1.3009,10.9947,1.2407,2.3667,3.4716,4.4982,3.2696,7.1627-.1339,1.7657-1.3767,3.2864-2.8577,4.2572-1.481.9707-3.2002,1.496-4.8624,2.1065-2.3743.872-4.6768,1.9395-6.8765,3.1882-1.1411.6478-2.3608,1.3697-3.6662,1.236-2.728-.2796-4.5698-4.1317-7.2049-3.3723-.5611,1.1717-.7643,2.4775-.961,3.7617-.852,5.5624-1.6927,11.3334-.1384,16.7417.636,2.2129,2.8904,5.4955,1.2318,7.0926-1.3375,1.288-1.1805,3.4671-.6584,5.2491.5137,1.7534,1.2849,3.4311,2.2812,4.9627,2.0144,3.0968,5.0905,6.0799,4.6821,9.7516-.161,1.4472-.8791,2.8207-.8223,4.2757.039.9984.4411,1.9422.6608,2.9169.5081,2.2551.0296,4.6018-.4486,6.8634-.6232,2.9475-1.3886,6.1353-3.7357,8.024-2.1614,1.7393-4.7788,2.1718-7.0084,3.8229-2.7308,2.0223-6.5377,1.6302-9.807.7038-.541-.1533-1.1083-.32-1.6567-.1956-.4656.1056-.8638.4137-1.1737.7769-1.225,1.4358-1.1229,3.6604-.2254,5.3208s2.4358,2.8682,3.9808,3.9522c1.545,1.084,3.1672,2.1186,4.3599,3.5813.3901.4785.7405,1.0285.7876,1.6441.0421.5517-.1642,1.0906-.3973,1.5924-2.8754,6.1889-10.1823,9.8908-11.7188,16.5398-.4516,1.954-.3601,4.0552-1.2077,5.8728-.9747,2.0899-3.0389,3.4744-4.2062,5.4631-1.533,2.6118-1.3173,5.8424-1.2743,8.8706s-.7398,5.8467-2.4183,8.3675c-.848,1.2734-1.7322,2.5833-3.0179,3.4125s-3.0917,1.0541-4.3017.1179c-.7327-.5669-1.134-1.4507-1.5077-2.2983-2.8049-6.3619-5.6097-12.7237-8.4146-19.0856-1.7608-3.9938-3.5359-8.0328-4.3269-12.3253-.5221-2.8332-.6054-5.7262-.8835-8.5937-.9087-9.3677-3.9403-18.5233-8.8017-26.5822-.7214-1.1959-1.4961-2.4012-1.7816-3.7683-.3673-1.7594.1158-3.5688.2746-5.3591.3528-3.9769-.986-8.0763-3.6181-11.0784-.8566-.977-1.9178-1.8777-3.2009-2.0822-2.6274-.4186-4.6871,2.0895-6.2619,4.2339-1.3501,1.8385-2.838,3.6595-4.8308,4.7693-1.9928,1.1098-4.6088,1.3698-6.4993.0936-1.4147-.955-2.2022-2.5742-3.2898-3.8898-1.0876-1.3156-2.8475-3.1126-3.9774-1.8333-2.2998,2.6039-4.6301,5.2534-6.1156,8.3939-1.4855,3.1404-2.0385,6.8945-.6757,10.0901,1.2013,2.817,3.6887,4.8365,5.6311,7.2041,1.9424,2.3677,3.3963,5.6793,2.0715,8.4404-.6059,1.2629-1.7063,2.2062-2.776,3.1105-4.5928,3.8828-9.6196,7.9503-15.618,8.3855-3.8077.2763-7.6539-.9689-11.4185-.3344-8.7652,1.4775-13.8713,12.3714-22.7291,13.1123-2.029.1697-4.1042-.2493-5.9071-1.1955-.6005-.3152-1.1838-.699-1.5885-1.2432-.5863-.7884-.7298-1.8107-.8547-2.7853-.7154-5.5828-.979-12.3072,3.5396-15.6631,3.0814-2.2885,7.3763-2.1004,10.7645-3.9037.5768-.307,1.1603-.7161,1.368-1.3356.4594-1.3702-1.0758-2.4781-2.0888-3.5087-2.4108-2.4528-2.269-6.5206-.8932-9.6727s3.7399-5.7567,5.5063-8.7075c1.7665-2.9509,2.9287-6.6319,1.6111-9.8087-1.1257-2.7139-3.7851-4.4389-5.5396-6.7956-1.3352-1.7936-2.1382-3.9784-2.2822-6.2098-.0616-.9551-.0235-1.9801-.5451-2.7825-1.1584-1.7824-3.8522-1.131-5.8839-.5055-6.0848,1.8733-12.8298,1.5159-18.6826-.9899-2.0082,1.7828-2.1738,5.012-1.0224,7.438.6113,1.2882,1.5332,2.4254,2.0106,3.769s.3708,3.0657-.7753,3.9141c-1.3631,1.009-3.2666.2673-4.829-.3923-2.1592-.9116-4.5617-1.6186-6.8251-1.01-2.2634.6086-4.1804,2.9884-3.5119,5.2348.4596,1.5443,1.9509,2.6068,2.4403,4.142.5255,1.6484-.2651,3.4964-1.5394,4.6666s-2.9513,1.7886-4.6049,2.2973c-4.9476,1.5219-10.12,2.311-15.2964,2.3335-.6123.0027-1.287-.029-1.7339-.4475-.4395-.4116-.5209-1.0691-.5649-1.6697-.2244-3.061-.1738-6.1347-.123-9.2034.1565-9.4644.3129-18.9289.4694-28.3933.0211-1.2794.0489-2.593.5305-3.7785,1.3037-3.2097,5.2657-4.2696,8.705-4.685,3.6314-.4386,7.6726-.5151,10.5232,1.7768,2.2649,1.821,3.2679,4.7372,4.7494,7.2375s4.0965,4.8712,6.9424,4.2822c3.5366-.7319,4.5872-5.1113,6.2073-8.3391,1.4692-2.9272,3.9383-5.3409,6.898-6.7435,2.5836-1.2243,5.5122-1.6984,7.9289-3.2259,2.4167-1.5274,4.1991-4.7538,2.7941-7.2438-.6625-1.1741-2.1318-1.9142-2.4205-3.2311-.37-1.6877.4246-3.4163,1.4249-4.825,1.0004-1.4087,2.2371-2.6733,2.9529-4.2459.7171-1.5754.8626-3.3585,1.5335-4.9541.908-2.1598,2.7125-3.8305,3.729-5.9414.9215-1.9133,1.1444-4.1538.618-6.2112-.4553-1.7796-1.4334-3.3737-2.1495-5.0653-.9008-2.1279-1.3845-4.4047-1.8632-6.6653-.4794-2.2637-.9613-4.5579-.8487-6.8691.1126-2.3112.8894-4.6801,2.5824-6.2574.9404-.8761,2.1115-1.4666,3.0947-2.2943s1.8072-2.0316,1.6511-3.3073c-.2847-2.3268-3.2703-3.0534-5.6128-3.1414s-5.3066-.566-5.8726-2.8408c-.3502-1.4077.5204-2.882,1.6993-3.7273,1.1789-.8453,2.6207-1.2152,4.0014-1.6602,1.5516-.5,3.097-1.1326,4.3321-2.1965,2.1886-1.8854,3.1323-4.8737,5.1844-6.9069,1.163-1.1522,2.6387-1.9525,3.7892-3.1172,2.869-2.9044,3.1799-7.3981,3.3124-11.4784.0337-1.0368.0584-2.1175-.3774-3.0588-.4357-.9414-1.4831-1.6869-2.4859-1.4218-1.891.5-3.9703-.7069-5.3663-2.077-1.0113-.9925-1.7856-2.3324-3.1103-2.8355-1.0598-.4025-2.2499-.1734-3.3677-.3625s-2.3079-1.1712-1.9772-2.2556c.1349-.4424.4945-.7779.702-1.1912.5787-1.1523-.1662-2.5583-1.1451-3.3975s-2.2047-1.3909-3.0488-2.3656c-1.4841-1.7139-1.3957-4.3828-.3457-6.3921s2.8776-3.4867,4.7224-4.8045c1.8448-1.3179,3.7875-2.5635,5.236-4.3075,3.5782-4.3083,3.3512-10.4889,4.6509-15.9364,1.063-4.4554,3.2243-8.5654,4.6738-12.9105.1503-.4506.2944-.931.1862-1.3934-.1953-.8347-1.0989-1.2657-1.9027-1.5637-2.451-.9088-4.9592-1.6632-7.5048-2.2573-1.1234-.2622-2.4117-.6149-2.8843-1.6673-.2907-.6471-.1826-1.3986-.0179-2.0887.7206-3.0185,2.4017-5.7446,3.0868-8.7714s-.0144-6.779-2.7915-8.1642c-.1702.0426.0099-.4885-.1604-.4459-1.4452-.5865-.8195-3.2675-2.2588-3.8683-.9712-.4054-1.9312.5231-2.9024.9283-1.6944.707-3.5885-.2256-5.1844-1.1335-2.618-1.4893-6.1539-2.8851-6.6963-5.8478-.1876-1.0247-.7843-3.5619.1767-3.1598,1.8971.7938,4.7267,6.6305,8.7103,7.0877s7.9456-.8458,11.6801-2.3057c.3002-.1174.6241-.2379.9373-.1615.8909.2172.7273,1.4982.6542,2.4123-.1546,1.9307,1.0874,3.7178,2.5684,4.9659s3.2385,2.14,4.696,3.4155c.4971.4351.9795.9554,1.0922,1.6064.1589.9185-.4525,1.7747-1.0297,2.5066-1.3135,1.6654-2.627,3.3307-3.9404,4.9961-.9193,1.1656-1.8728,2.4095-2.0645,3.8816s.7166,3.1954,2.1957,3.3221c.6201.0531,1.2255-.1731,1.8131-.3781,2.2981-.8016,4.6915-1.3296,7.1135-1.5694,1.2428-.1231,2.7934.0009,3.3059,1.1397.3178.7062.0823,1.5276-.179,2.2566-1.4094,3.932-3.4957,7.6205-6.1395,10.8543-1.1708,1.4322-2.4847,2.8369-3.0229,4.6067-.2941.9671-.3374,1.9997-.2113,3.0026.2565,2.0411-1.3182,4.06-2.1238,5.9527-1.0904,2.5616-.6784,5.5147-1.3925,8.2056-.7404,2.79-2.6354,5.1145-4.5825,7.2454-1.7807,1.9489-3.7799,4.1527-3.621,6.7878.0593.9831.4292,1.9284.9397,2.7707.8435,1.392,2.1905,2.5896,3.8065,2.7838,1.163.1397,2.3256-.2476,3.497-.2517,5.4464-.0189,8.4316,7.724,13.8773,7.8143,1.2037.0199,2.4881-.4343,3.1408-1.4458.5507-.8535.5664-1.9343.5492-2.9499-.0551-3.2402-.2516-6.5662.7791-9.6386,1.0306-3.0724,3.6525-5.8784,6.891-5.9955.6092-.022,1.2487.0608,1.7507.4067,1.0917.7522,1.0929,2.3564.8137,3.6525-.6068,2.8162-1.979,5.4515-2.3175,8.3124s.7968,6.2547,3.5389,7.1381c2.2259.7171,4.5575-.4495,6.7915-1.1407,1.7682-.5471,3.6266-.8013,5.4768-.7492.6596.0186,1.3396.0819,1.9216.3927.6162.3291,1.0595.9002,1.5836,1.3622,1.8673,1.6458,4.599,1.7953,7.0826,1.6309s5.0636-.5446,7.3978.3197c.8144.3016,1.656.8644,1.7819,1.7237.3684,2.5131,1.7539,4.933,2.4982,7.3614.4177,1.3629.861,2.7723,1.811,3.835,1.2654,1.4156,3.2982,1.9952,5.1847,1.7797,1.8865-.2155,3.6332-1.1444,5.1131-2.3341,1.5887-1.2771,3.0609-2.9362,5.0717-3.2702,1.3626-.2263,2.769.2089,4.1332-.0075,3.0742-.4876,5.0368-4.069,8.1405-4.3046,1.7405-.1321,3.35.8447,4.8209,1.7844,2.0535,1.3119,4.1069,2.6237,6.1604,3.9356,4.4356,2.8336,9.1167,5.9488,11.1852,10.7887,1.3031,3.0489,2.5198,6.1592,4.7795,8.5855,1.7271,1.8545,3.9391,3.1749,6.1375,4.4355,3.0687,1.7597,6.4714,3.5112,9.9677,2.9731,1.092-.1681,1.9485.3693,3.0507.292,1.5383-.1079,2.4291-.4424,3.9603-.2594Z"/>
      <path class="bn" d="m68.8555,219.2457c-1.4787.0113-2.9436.3893-4.3122.957-1.0852.4501-2.165.9398-3.1144,1.6318-1.9937,1.4533-3.3086,3.8009-3.5062,6.2602-.0872,1.0852.0322,2.1747.114,3.2604.5872,7.7905-.7331,15.8423,1.6012,23.298.2745.8768.6054,1.7517,1.1566,2.4867.4744.6326,1.0985,1.1413,1.7706,1.5577,2.853,1.7673,6.6939,1.8066,9.5727.0816.8507-.5098,1.6397-1.1874,2.0588-2.0862.7715-1.6545.1277-3.6141-.7253-5.2281-.8531-1.614-1.9382-3.1998-2.0721-5.0204-.0315-.4286-.0054-.8732.1756-1.2629.1634-.3519.442-.6363.7298-.8965.8231-.7442,1.768-1.3533,2.7856-1.7956,2.3191-1.0081,5.191-1.287,6.6789-3.3317.2539-.3489.459-.7602.439-1.1913-.0228-.4899-.328-.9165-.6354-1.2986-2.0805-2.5859-4.9457-4.8583-5.5171-8.1277-.1756-1.0049-.1136-2.0366-.2325-3.0498-.2326-1.9816-1.2141-3.9073-2.8214-5.0893-1.6073-1.182-2.4122-1.2286-4.7207-1.1326"/>
      <path class="bn" d="m59.1128,229.2419c-.2864,2.3371.0712,4.6975.2921,7.0417.2983,3.1639.3501,6.3653,1.0258,9.4705s2.0577,6.1816,4.5254,8.184c.7787.6319,1.6882,1.1577,2.6863,1.2559s2.0901-.3115,2.5875-1.1823c.3432-.6008.3691-1.3357.2609-2.0192-.2582-1.6323-1.1995-3.059-1.9759-4.5178-.7764-1.4588-1.4172-3.1338-1.0109-4.7356.2313-.9119.7811-1.705,1.3205-2.4758.6209-.8874,1.2419-1.7747,1.8628-2.6621.7503-1.0722,1.5083-2.1589,1.969-3.3838.385-1.0237.5513-2.1165.6499-3.2057.1484-1.6399.1414-3.336-.4363-4.8779-.7699-2.0551-3.0856-4.3927-5.4204-4.4396-2.4048-.0483-5.3954,1.3198-6.7779,3.2706-.8859,1.25-1.3739,2.766-1.559,4.2771Z"/>
      <path class="bn" d="m61.0374,229.0861c-.5692,1.306-1.0408,2.7167-.8732,4.1314.1202,1.0142.5627,1.9625,1.0759,2.8454.2386.4104.5013.8198.8758,1.1115.7538.5874,1.8424.5843,2.7274.2237s1.6076-1.0246,2.2869-1.6969c1.074-1.0629,2.1061-2.2,2.7904-3.5472s.9944-2.9388.5696-4.3889c-.5455-1.8624-2.8123-3.6637-4.8237-3.5271-2.2348.1517-3.8521,3.0655-4.6291,4.8481Z"/>
      <path class="bn" d="m64.3766,230.6283c.4365.1416.9311.2737,1.1671.6673.1973.3292.2247.8377.5959.9351.1478.0388.3056-.011.4386-.0861.4368-.2467.6746-.7414.7926-1.2289.3427-1.417-.778-2.4851-2.1901-2.5433-1.4302-.0589-2.5854,1.6782-.8041,2.2559Z"/>
      <path class="bn" d="m110.9371,10.2945c-2.1827-.1706-3.8024-.9302-4.3366-3.2147-.181-.7741-.2657-1.5789-.581-2.3087-.4077-.9436-1.2039-1.7122-2.1613-2.0863-.4588-.1793-.977-.2691-1.4432-.1098-.6723.2296-1.0748.906-1.3715,1.5515-1.1258,2.4494-1.9055,5.6903-.9171,8.3097.5354,1.4186,1.6744,2.5163,2.8383,3.4882,2.5363,2.118,5.6373,3.6936,8.6985,4.9374,1.1192,3.4357.8302,7.2245-.3105,10.6531-1.1407,3.4286-3.0903,6.5351-5.2694,9.4175-1.6139,2.1347-3.3903,4.2135-4.3527,6.7105-.271.7031-.476,1.4599-.3631,2.2049.0999.6597.4428,1.26.852,1.7871,1.746,2.2492,4.7213,3.3086,7.568,3.2456s5.5854-1.1216,8.0951-2.4666c.3088-.1655.7098-.3298.9821-.1093.1534.1242.2058.3316.2492.5241.4752,2.1072.9505,4.2153,1.3268,6.3424.3512,1.9856.6057,4.0881-.1143,5.9717-1.0705,2.8008-3.9517,4.3752-6.3802,6.1338-4.313,3.1231-7.7116,7.4938-9.6759,12.4433-.5561,1.4013-1.0027,2.863-1.1036,4.3672-.1588,2.3665.535,4.8096-.147,7.0813-1.3006,4.3325-9.363,6.3489-7.7873,10.5891,1.3111,3.5279,1.5022,7.5638.0055,11.0171s-4.8259,6.1834-8.5789,6.4664c-4.4115.3326-8.3468-2.5079-11.9813-5.0303-3.6345-2.5225-8.0114-4.9603-12.2631-3.7376-2.6808.7709-4.7383,2.8639-6.7249,4.8221-4.3446,4.2823-9.346,8.4758-15.3948,9.267-5.5328.7237-16.2155-6.9008-16.1021-3.7254.0615,1.721,2.7598,6.2423,4.1397,9.3634,2.1473,4.8569,4.2086,10.8218,1.1195,15.1412-3.6501,5.1038-12.3262,4.5236-15.6578,9.8408-1.3535,2.1602-1.4882,4.8429-2.2843,7.2646s-2.8211,4.8781-5.3546,4.5952c-1.0472-.1169-2.0894-.6987-3.0999-.4004-.6274.1852-1.1139.6858-1.481,1.2273-1.4479,2.1354-1.386,4.9154-1.2702,7.4928.496,11.0373.9919,22.0745,1.4879,33.1118.03.6669.0778,1.3834.4955,1.9042.6217.775,1.7752.7982,2.7658.722,5.3539-.412,10.7485-1.8199,15.1362-4.9155,4.3877-3.0956,7.6501-8.0469,7.872-13.412.187-4.5204-1.6176-9.5227.8748-13.2986,1.4578-2.2084,4.0295-3.3438,6.3512-4.6133,3.8003-2.0779,7.2496-4.7958,10.1587-8.0047,2.3313-2.5716,4.7672-5.6989,8.2332-5.8845,4.0266-.2156,6.9125,3.5905,10.11,6.0474,5.2164,4.0081,12.4605,4.6703,18.816,2.9723,6.3556-1.6979,11.7455-5.9031,16.7786-10.1392,2.5133,2.1677,4.5399,4.8964,5.8887,7.9289.4566,1.0265.8415,2.1755.5361,3.2566-.6488,2.2974-3.7812,2.7823-5.2356,4.6754-1.8113,2.3576-.4664,6.0443-2.0771,8.5433-.6387.991-1.7268,1.7681-1.8954,2.9349-.1252.8667.3035,1.7069.7189,2.4778.9723,1.8045,1.9446,3.609,2.9169,5.4136.723,1.3419,1.4612,2.7332,1.5856,4.2525.1243,1.5192-.3142,3.601-1.7759,4.0333-2.3192.686-2.8679,3.7461-4.6563,5.3742-2.2098,2.0117-5.689,1.4017-8.522,2.3526-1.1186.3754-2.2172,1.015-3.3904.8884-1.1143-.1202-2.0215-.9037-2.9736-1.4951-4.2504-2.6399-9.6873-1.5633-14.6882-1.4021-3.3462.1079-6.7068-.241-9.9595-1.0341-1.2068-.2943-2.7746-.5152-3.4259.5426.3142,3.8873.9436,7.7491,1.88,11.5351.4037,1.6321.8663,3.2612,1.0024,4.937.143,1.7596-.0776,3.5255-.2543,5.2821-.745,7.4048-.7147,14.8631-.6837,22.3051.0147,3.5213.0293,7.0426.044,10.564.0029.7041.0214,1.4588.431,2.0315.7855,1.0982,2.4559.9037,3.7452.5029,3.8283-1.19,7.3683-3.1431,11.0714-4.6791,3.7031-1.536,8.2337-3.2728,12.2001-2.69,2.0433-.6691,1.9367-3.5752,1.3711-5.6495s-.8422-4.9186,1.1314-5.7716c1.314-.5679,2.7722.2112,4.1232.6844,4.8621,1.7029,10.8383-1.2689,12.4146-6.1735.6651-2.0693.683-4.4581,2.1014-6.105,1.3157-1.5276,3.7392-1.9593,5.5015-.9802s2.6758,3.2651,2.0736,5.1891c-.3806,1.2161-1.2612,2.2055-1.8298,3.3458-.9543,1.9136-.9846,4.1388-.9952,6.2771-.0075,1.5208.0924,3.2726,1.3025,4.1937,1.4897,1.134,3.7731.3159,5.4002,1.2421,2.0639,1.1748,1.8028,4.2797.7249,6.3958s-2.7321,4.1539-2.593,6.5247c.096,1.6362,1.0558,3.114,1.2411,4.7424.4582,4.0256-3.6971,6.9347-7.4237,8.5245-2.3584,1.0061-5.0734,2.1964-5.769,4.6642-.7801,2.7674,1.4571,5.5031,1.5208,8.3777.0676,3.0466-2.313,5.8664-1.8108,8.8721.3321,1.9877,1.9364,3.6049,3.8069,4.3548,1.8706.7499,3.9674.7394,5.9565.4158,7.9453-1.2923,14.2512-7.1104,20.4641-12.2286,1.4624-1.2047,3.0006-2.4123,4.826-2.9198,2.3924-.6651,4.9252-.0428,7.4036.1114,9.5574.5946,18.0038-5.7223,25.4756-11.7115,1.2074-.9678,2.4549-1.9855,3.1128-3.3861,1.1693-2.4893.1496-5.48-1.3967-7.7543-1.5463-2.2743-3.6089-4.2053-4.8405-6.6643-1.91-3.8136-1.4602-8.6944,1.1147-12.0946.2076-.2741.4453-.5515.7717-.6594.4039-.1335.8423.0234,1.2288.2013,3.8833,1.7875,7.2394,5.9742,11.4148,5.0569,2.5064-.5506,4.1902-2.8068,5.995-4.6311,1.8047-1.8244,4.5416-3.4018,6.8241-2.229,1.5009.7711,2.2481,2.496,2.6003,4.1462,1.1232,5.2623-.5573,11.0559,1.6847,15.9473.8751,1.9093,2.2855,3.5127,3.4536,5.2582,4.7309,7.0694,9.0157,16.7442,6.3997,24.8383-.9281,2.8717-.1317,6.0317,1.1534,8.7623,1.2852,2.7306,3.0476,5.2256,4.204,8.0132,1.3141,3.1679,1.84,6.6955,3.7298,9.5575.7317,1.1081,1.6486,2.0831,2.4013,3.177,2.0762,3.0176,2.9139,6.9375,5.7017,9.3133.5158.4395,1.1642.8314,1.8316.7143.515-.0904.927-.4647,1.3079-.8229,2.731-2.5684,5.5409-5.2496,6.9544-8.7219.9781-2.403,1.2197-5.0287,1.6201-7.5921.6036-3.8643,1.5875-7.6576,2.5697-11.4434.6243-2.4062,1.2549-4.8299,2.3302-7.0711,2.8139-5.865,8.3467-9.8944,12.3083-15.054,1.4805-1.9281,2.7991-4.3197,2.23-6.6831-.4756-1.9749-2.2129-3.5907-2.2061-5.622.0058-1.7175,1.2959-3.1818,2.7466-4.1011,1.4507-.9193,3.1127-1.4667,4.5582-2.3942,3.181-2.041,5.4147-5.7902,8.7-7.6588,1.5399-3.2069,3.1199-6.7369,2.2991-10.1984-.2937-1.2384-.8866-2.3975-1.102-3.6519-.5349-3.1154,1.3204-6.3164.6102-9.3966-.7049-3.0576-3.6718-5.0021-5.2613-7.7075-1.0638-1.8106-1.4815-3.917-1.8826-5.9783-1.1683-6.0042-2.3422-12.0908-1.9275-18.1935.1638-2.4104,1.0277-5.3129,3.3907-5.8157,1.152-.2452,2.3548.1893,3.5209.0237,1.6313-.2316,2.8485-1.5535,4.0518-2.679,2.7759-2.5964,6.1897-4.5055,9.8551-5.5114,2.2966-.6302,5.0122-1.1446,6.0994-3.2635,1.1257-2.1937-.1669-4.785-1.2546-6.9978-4.7924-9.749-3.4121-21.0517-2.4713-31.8741.2707-3.1141.4602-6.3362-.5734-9.2862-1.2506-3.569-4.2238-6.369-7.6513-7.967-3.4275-1.5981-7.2803-2.092-11.0618-2.0466-2.4793.0297-4.9939.2788-7.4138-.2614-3.8769-.8655-7.1352-3.764-8.9039-7.3208-1.2312-2.4759-1.8335-5.2994-3.55-7.4673-1.0499-1.3261-2.4526-2.3196-3.835-3.2942-5.6714-3.9985-11.1881-8.3596-16.8595-12.358-1.1254.0388-1.7964-1.325-1.7175-2.4483.0789-1.1233.596-2.1975.5566-3.3229s-1.0575-2.3606-2.1154-1.9747c-.3981.1452-.6904.4842-.9446.8233-1.306,1.7418-2.0898,3.8134-3.2098,5.6802s-2.7382,3.6237-4.8704,4.0635c-.9116.188-1.8583.1215-2.7769.2716-4.1251.6738-6.7565,5.4453-10.9199,5.8148-1.2476.1107-2.5656-.236-3.4804-1.0914-2.6558-2.4832-.596-7.0554-1.8496-10.4684-1.2982-3.5343-5.6986-4.7642-9.4636-4.7306-3.765.0336-7.7221.7897-11.1652-.734-1.5248-.6748-2.8923-1.7813-4.5377-2.0513-1.6993-.2788-3.3906.3807-5.0698.7623s-3.673.3971-4.8568-.8535c-1.5502-1.6376-.7958-4.2581-.3583-6.4702.4216-2.1317.4466-4.3411.0733-6.4818-.2703-1.5502-.8665-3.2152-2.2522-3.961-1.0333-.5561-2.2801-.4754-3.4469-.3514-2.4272.2578-5.054.7505-6.6598,2.5887-1.1551,1.3223-1.5733,3.1174-2.4013,4.6657-1.6822,3.1453-5.7166,5.2116-8.9664,3.7414-2.0728-.9377-3.41-3.0833-3.882-5.3089s-.1932-4.5394.2212-6.7764c.8767-4.7322,2.3478-9.3307,3.8151-13.9143.981-3.0644,1.9995-6.2011,3.9882-8.7304,2.0989-2.6695,5.19-4.5411,6.82-7.5202.6661-1.2174,1.069-2.5915,1.9381-3.6733.8691-1.0818,2.4533-1.7957,3.6573-1.1058,4.6324,2.6543,8.7184,6.2012,13.1159,9.2289.7614.5242,1.5647,1.0646,2.4837,1.1642,1.7819.1933,3.308-1.3319,4.088-2.9456,2.3024-4.7639.4849-10.5578-2.4601-14.9536s-6.9494-8.0344-9.647-12.5861c-2.1668-3.656-3.418-7.7813-5.3989-11.5413-1.9809-3.76-4.9681-7.3216-9.067-8.4445-1.5499,1.6159.2122,4.1135,1.2876,6.0775,1.3962,2.5499,1.5249,5.5777,1.6215,8.4832.1267,3.8096.2534,7.6191.3802,11.4287.0249.749.0443,1.5281-.2613,2.2124-.4765,1.0668-1.6135,1.6498-2.6686,2.1517-1.1148.5303-2.3427,1.0741-3.5421.7817-2.1147-.5156-2.7904-3.1684-2.854-5.3441-.0636-2.1757-.0847-4.7257-1.8424-6.0097-1.0042-.7336-2.3369-.8333-3.4403-1.4069-2.4544-1.276-3.1187-4.384-4.0673-6.9825-.9486-2.5985-3.3602-5.3808-5.9729-4.4721-.8775.3052-1.5631.9841-2.3261,1.5144-2.6867,1.8671-6.2225,1.835-9.4843,1.58Z"/>
      <path class="bn" d="m121.1647,254.3532c.148-.0298.3016-.0677.4156-.1667.1766-.1533.2136-.4107.2173-.6445.0212-1.328-.7065-2.643-1.8428-3.3305-.385-.2329-.8094-.3964-1.245-.5092-2.2071-.5711-7.4183.8192-6.5508,4.0315.8204,3.0375,6.9585,1.032,9.0056.6194Z"/>
      <path class="bn" d="m92.8044,152.2692c-1.0969.6227-2.2225,1.2555-3.0482,2.2091-.7317.845-1.1833,1.8914-1.7977,2.8252-2.09,3.1767-5.9094,4.8091-9.6606,5.4322-1.034.1718-2.1072.2899-3.0234.7991-1.4481.8049-2.2994,2.4765-3.8183,3.138-1.5302.6664-3.425.0638-4.5294-1.1876-1.1044-1.2514-1.4902-3.02-1.3362-4.6819.108-1.1658.4575-2.2978.5856-3.4616.2957-2.686-.5958-5.345-1.4746-7.9003-.2067-.6009-.4321-1.2305-.9106-1.6487-1.1873-1.0376-3.06-.1767-4.1933.9196-2.2217,2.1492-3.727,5.2072-6.5649,6.4324-1.3835.5973-2.9355.6783-4.3607,1.1679-2.5054.8608-4.4067,2.8962-6.0905,4.9413-5.0297,6.1088-9.7568,13.4428-17.392,15.5207-.6975.1898-1.4441.3294-2.136.12-.6661-.2016-1.1967-.7013-1.6635-1.2175-2.4643-2.7254-3.8531-6.3981-3.8088-10.0722.0117-.9697.1382-1.9895.7115-2.7717.467-.6373,1.1767-1.0439,1.8649-1.4319,3.2722-1.8448,6.801-3.8248,9.8619-6.0022,3.0798-2.1908,2.3467-7.4214,5.2864-9.7969.5369-.4338,1.1754-.7481,1.636-1.2621,1.333-1.4875.6343-3.8247-.2012-5.6389s-1.7253-4.014-.6349-5.6873c.9727-1.4926,3.0059-1.7417,4.7678-2.0059,5.3589-.8037,10.4849-3.1068,14.6445-6.5798,1.9627-1.6388,3.7223-3.5368,5.8641-4.9334,2.1418-1.3966,4.6312-1.6756,7.08-.9399,1.7551.5273,3.3605,1.2117,4.8464,2.2843,2.3378,1.6875,4.9529,2.9443,7.5522,4.1918,1.4395.6908,2.9286,1.3947,4.5236,1.4674,2.6833.1224,5.4428-1.2636,7.5884-2.8797,2.396-1.8047,4.5435-4.12,5.359-7.0066.8926-3.1594-.463-6.6012.2992-9.7945,1.1258-4.7172,6.552-7.7354,6.9474-12.5689.0528-.6456.1874-1.3363.4742-1.9171s.8942-.9754,1.4231-.6013c.2585.1828.3858.4961.4907.7949.8186,2.3312.7797,4.5207.8532,6.9903.0402,1.3495.7244,2.6657,1.806,3.4739,1.2451.9304,2.8665,1.1538,4.2934,1.7701,1.4269.6164,2.8042,1.9865,2.487,3.5081-.3462,1.6607-1.158,3.5861-.5334,5.1632.6246,1.5772,1.7391,2.9007,2.6691,4.3193,1.4022,2.1387,2.422,4.6452,2.2339,7.1957s-1.8169,5.0988-4.278,5.7939c-1.0826.3058-2.239.2467-3.3313.516-2.2164.5464-3.9001,2.376-5.0475,4.3494-1.1474,1.9734-1.895,4.1598-3.0591,6.1234-2.9643,5.0003-8.2003,7.6711-13.2555,10.5408Z"/>
      <path class="bn" d="m150.1672,22.1326c.584,2.3722,1.4835,4.6537,2.4096,6.9144,1.7229,4.206,3.5498,8.375,5.6792,12.3906.6288,1.1858,1.2933,2.371,2.2113,3.3501,1.681,1.7932,4.1936,2.7726,6.6447,2.5903.3749-.0279.757-.0842,1.0883-.2619.3606-.1934.6343-.5164.8637-.8552,1.2827-1.8948,1.3698-4.4117.7066-6.6016-.6632-2.1899-1.9946-4.112-3.404-5.9145-2.165-2.769-4.57-5.3652-6.4359-8.344-1.5666-2.5011-2.7312-5.2383-4.3233-7.7232-1.1102-1.7327-2.4333-3.3527-3.2223-5.2533-.4118-.992-.8516-2.8384-2.1115-3.0939-1.5518-.3147-1.1219,1.7874-1.1176,2.7341.0153,3.3763.2011,6.778,1.011,10.068Z"/>
      <path class="bn" d="m159.059,36.1587c.5563.9393,1.2831,1.7772,1.7556,2.7613.4342.9044.6432,1.9117,1.1508,2.7771.5013.8548,1.267,1.5234,2.0729,2.1002.5645.4041,1.2005.7846,1.8946.7716.7214-.0135,1.3822-.4663,1.8007-1.0541.7533-1.0579.7975-2.4962.4125-3.7365s-1.1476-2.3242-1.925-3.3646c-1.0335-1.3832-2.1142-2.7313-3.2394-4.041-.8475-.9865-2.1572-3.0482-3.5258-3.321-3.0902-.6159-1.0773,5.9582-.3969,7.1069Z"/>
      <path class="bn" d="m164.8568,37.8897c-.2808-.5565-.8994-.9244-1.5224-.9054.4069,1.359.9797,2.6681,1.7018,3.8892.0369.0625.0759.1265.135.1686.1687.12.4109.0037.5383-.1595.384-.4917.1603-1.2024-.0782-1.7789-.1146-.2769-.2292-.5538-.3438-.8308-.1626-.3928-.3362-.8011-.6603-1.0762s-.847-.3663-1.1664-.0858c-.08.0703-.1267.226-.0266.2622"/>
      <path class="bn" d="m113.9126,133.6838c-3.383.8723-5.803,5.3741-6.2636,8.8542-.3028,2.2879.1143,4.66-.4735,6.8918-.3318,1.2597-.9696,2.4139-1.6014,3.5531-.3254.5869-.6561,1.181-1.1206,1.6654-1.2448,1.2985-3.2959,1.4462-5.0474,1.0368-1.7934-.4192-3.599.8043-4.6653,2.3059-1.0663,1.5016-1.6497,3.2955-2.6489,4.8426-2.8737,4.4495-8.5276,6.0615-13.7238,7.0889-3.9918.7893-8.2264,1.419-12.0496.0258s-6.96-5.4966-5.8756-9.4186c.2663-.9633.7144-2.141,0-2.84-.5506-.5388-1.4516-.3977-2.1926-.1868-14.9108,4.2437-23.8694,20.8359-38.8621,24.7805-1.1993.3155-2.5547.6346-3.2033,1.6917-.4617.7525-.4368,1.6958-.3788,2.5766.3602,5.4721,1.435,10.8967,3.1885,16.0927.386,1.1437.811,2.3313.6491,3.5274-.3097,2.2885-2.5802,3.7292-4.6807,4.6887-2.0489.9359-4.1646,1.7257-6.3257,2.3612-1.1262.3312-2.3974.6067-3.4262.0413-1.3568-.7457-1.6311-2.5422-1.7506-4.0858-.7644-9.8708-1.4089-20.3583,3.2361-29.1014.5516-1.0383,1.2145-2.081,2.2325-2.669,2.1133-1.2207,5.0717-.1253,7.0607-1.5395-.0084-.7492-.0168-1.4983-.0252-2.2475-.0486-4.3303-2.0978-9.2648.5267-12.7095,3.2802-4.3052,10.8015-3.845,13.4319-8.5753.9108-1.6379,1.0284-3.6268,1.9488-5.2594.7741-1.3731,2.0964-2.4604,2.4927-3.986.5761-2.2174-.98-4.3452-2.0641-6.3635-1.0841-2.0183-1.4707-5.0486.5378-6.1508.785-.4308,1.7272-.4159,2.6226-.4279,7.2636-.0974,14.4662-2.7821,20.0214-7.4629,2.6061-2.1959,5.0386-4.9123,8.354-5.7009,4.136-.9838,8.2768,1.332,11.8304,3.6658,3.5536,2.3337,7.4437,4.89,11.6705,4.4337,5.7371-.6194,9.4806-6.7106,9.975-12.4599.2167-2.5199.0008-5.1263.8349-7.514,1.7823-5.1017,7.2683-8.6585,6.7566-14.0383,0,0,.0134-2.8732.4255-4.8658.2396-1.1587,1.1651-2.0327,2.0428-2.8262,3.0439-2.7517,6.0878-5.5033,9.1317-8.255,1.6607-1.5013,3.3237-3.0047,4.8551-4.6377.6765-.7214,1.33-1.4718,1.85-2.313,1.9983-3.2328,1.7843-7.3092,1.5441-11.1021-.1231-1.9437-.2283-3.9474.4087-5.7879.3651-1.0548.9767-2.0919.8567-3.2016-.1041-.9628-.8147-1.8331-1.7372-2.1276-1.3871-.4429-2.8254.356-4.134.9944-3.5401,1.7267-7.5758,2.4222-11.4896,1.9801-.5402-.061-1.1275-.1693-1.4798-.5834-.4795-.5635-.2936-1.4633.1751-2.0359s1.1488-.92,1.7595-1.3379c2.0008-1.3691,3.3442-3.6576,3.5644-6.072.1433-1.5714.143-3.2692.9506-4.6248.5034-.8449,1.1677-1.5842,1.6811-2.423.8586-1.4026,1.2643-3.028,1.6582-4.6247.3911-1.5851.7759-3.2924.1804-4.8125-.4664-1.1906-1.4836-2.0919-2.5976-2.7197s-2.3405-1.023-3.524-1.5071c-1.5252-.6238-2.9838-1.3975-4.4394-2.1698-1.3801-.7322-2.8244-1.5231-3.6454-2.8522-1.162-1.8811-.7697-4.2947-.2974-6.4546"/>
      <path class="bn" d="m5.8895,208.9536c-.009.5413.0168,1.1619.4365,1.5039.516.4204,1.2818.1601,1.881-.1297,1.1893-.575,2.4622-1.3339,2.8216-2.6051.4722-1.67-2.1562-6.3603-3.9697-6.8642-1.3416-.3728-1.0063.2981-1.0641,1.7638-.083,2.1073-.0703,4.2227-.1055,6.3313Z"/>
      <path class="bn" d="m33.5978,154.8877c1.2251-3.0557,2.3334-6.5039,5.157-8.1966,1.2726-.7629,2.7864-1.0832,3.996-1.9426,1.2096-.8594,2.0207-2.6352,1.1334-3.8245-.8681-1.1635-2.8836-1.1486-3.4836-2.4704-.425-.9363.1633-2.0692,1.0088-2.6543s1.8889-.7835,2.8713-1.0871c4.2369-1.3094,7.4746-4.6418,10.786-7.5916,3.3113-2.9498,7.2678-5.7569,11.6997-5.6002,3.5219.1245,6.6611,2.0998,9.8452,3.6099,3.5918,1.7034,7.5382,2.8781,11.5038,2.6004,3.9655-.2778,7.9483-2.1826,10.0587-5.5514,3.6511-5.8283,1.1773-14.5672,6.1155-19.3541.4223-.4093.9585-.7955,1.5425-.726.5631.067.983.5326,1.3475.9669,1.797,2.1412,3.594,4.2824,5.391,6.4236.1873.2232.3804.4576.4473.7413.1559.6618-.4103,1.2536-.9214,1.702-1.4221,1.2477-2.8461,2.5593-3.7392,4.2271-1.2977,2.4235-1.3277,5.2969-1.4293,8.0441-.2169,5.8638-.9801,11.9483-4.1509,16.8856-.9312,1.45-2.1013,2.8101-3.645,3.576-1.4109.7-3.0613.8685-4.3925,1.7102-1.8995,1.2011-2.9456,3.6433-5.0885,4.3206-.9073.2867-1.9085.2097-2.7913.5646-1.4918.5997-2.2651,2.2479-3.5634,3.1962-2.1823,1.594-5.3918.8221-7.4639-.9128-2.0721-1.7349-3.342-4.2126-4.8169-6.4771-1.4749-2.2645-3.3797-4.4884-5.9924-5.1793-1.4944-.3952-3.074-.2448-4.6065-.0432-2.5961.3415-5.1739.8223-7.7185,1.4395-2.0042.4861-4.2166,1.24-5.1116,3.098-.4826,1.0019-.4887,2.1665-.8504,3.2181-.3363.9777-.9666,1.8223-1.5874,2.6491-3.4242,4.5611-6.8483,9.1222-10.2725,13.6834-1.5333,2.0424-3.1013,4.1192-5.1839,5.5974-2.0826,1.4783-4.8012,2.2885-7.2323,1.5062s-4.2791-3.4872-3.553-5.9358c.7868-2.6534,3.8196-3.7679,6.3157-4.9634,3.3065-1.5835,7.15-4.1943,8.375-7.25Z"/>
      <path class="bn" d="m25.1001,165.2635c-.6354-.0029-1.3096.1026-1.7929.5151-.4377.3737-.657.9557-.6985,1.5298s.0768,1.1472.2176,1.7053c.1404.5568.3087,1.1183.6326,1.5925.2952.4321.7532.7925,1.2761.8133.5531.022,1.0467-.3294,1.4628-.6945.7283-.6391,1.3795-1.382,1.8152-2.2474.2353-.4673.4047-.9704.4853-1.4879.0462-.2968.2039-1.0966-.0691-1.3215-.2797-.2303-1.2245-.1827-1.5922-.2369-.5757-.0848-1.1539-.165-1.7369-.1677Z"/>
      <path class="bn" d="m38.7963,150.2915c-.486.3594-1.0362.6357-1.4737,1.0529s-.7552,1.036-.5988,1.6199c.0876.3272.3123.6031.4112.927.0658.2154.0737.4447.134.6616s.1924.435.4064.505c.3174.1038.6313-.1545.8516-.4054.9618-1.0959,1.6079-2.4658,1.8418-3.9051.0366-.2253.0625-.4614-.0106-.6776s-.2721-.4059-.5002-.3965c-.1677.0069-.3121.1145-.4445.2175-.3747.2914-.2425.1092-.6173.4006"/>
      <path class="bn" d="m65.3173,125.3699c-1.256-.0241-2.6019.4272-3.2967,1.4738-.6948,1.0466-.4289,2.7219.7197,3.2307,1.0422.4617,2.2335-.1406,3.3732-.1221,1.3132.0213,2.458.8624,3.4544,1.718,3.1175,2.677,5.9256,5.9583,9.7929,7.3471.9334.3352,1.9547.5498,2.9146.3006s1.8247-1.0694,1.8575-2.0606c.0157-.4757-.1546-.9397-.3783-1.3598-1.1487-2.1579-3.5627-3.2658-5.8107-4.2262-2.2861-.9767-4.9554-1.7547-7.0259-3.1526-.8344-.5634-1.4119-1.4233-2.2263-2.0131-.9756-.7065-2.1693-1.1127-3.3744-1.1358Z"/>
      <path class="bn" d="m63.3588,124.1802c-2.0216.7587-3.6392,2.3749-4.7379,4.2338-.341.5768-.6433,1.1984-.699,1.8662s.1783,1.3931.7284,1.7757c.563.3916,1.3109.3524,1.9919.2712,2.0797-.2478,4.2363-.7327,6.225-.0756,1.1111.3671,2.0839,1.0713,2.9334,1.876,1.7401,1.6483,3.0123,3.7231,4.6004,5.5184s3.6664,3.3757,6.0599,3.5039c1.7485.0937,3.5234-.6506,4.6821-1.9635.1767-.2003.3457-.4177.5793-.5473.2987-.1657.6585-.1639,1.0001-.1576,2.3586.043,5.0101-.0247,6.6467-1.7237.836-.8678,1.2726-2.056,1.4519-3.2475.1791-1.19.0017-2.6281-1.0411-3.2286-.7673-.4419-1.745-.2628-2.5585.087s-1.5658.8577-2.4249,1.0723c-1.4245.3558-2.9079-.1412-4.2917-.632-3.375-1.197-6.7601-2.3977-9.9862-3.9628-1.037-.5031-2.1375-.9741-2.9945-1.7622-1.0821-.9952-1.8842-2.2203-3.2732-2.8328-1.5296-.6745-3.3378-.6542-4.892-.0709Z"/>
      <path class="bn" d="m90.083,129.348c1.231-.6902,2.4466-1.4944,3.8379-1.7315s3.0406.2875,3.5808,1.5913c.2626.6338.2281,1.3464.1797,2.0307-.1062,1.5023-.2585,3.0008-.4108,4.4991-.2255,2.2188-.4619,4.4802-1.3619,6.5208-.2212.5016-.5022,1.0093-.9687,1.2973-.8769.5414-1.9963.1176-2.9956-.1345-1.7989-.4539-3.7501-.2793-5.4398.4868-1.6519.7489-3.0505,2.0362-4.7883,2.5555-2.004.5989-4.3143.0217-5.8012-1.4494-.7673-.7591-1.3079-1.7112-1.9325-2.5914-1.3732-1.9352-3.1605-3.5321-4.9316-5.1112-.6311-.5627-1.2722-1.1322-2.0301-1.5071-1.4702-.7272-3.1931-.6417-4.8314-.5642-2.6889.1272-5.3809.1887-8.0727.1844-.8505-.0013-1.8656-.1028-2.2679-.8522-.3225-.6008-.0819-1.3426.2198-1.9541,1.4497-2.938,4.1221-5.0513,6.7192-7.0483,2.0073-1.5435,4.249-3.155,6.779-3.0514,1.7711.0725,3.3817.9851,4.94,1.8299,3.3895,1.8377,6.8902,3.4608,10.3882,5.0826,1.9396.8993,7.957.607,9.188-.0832Z"/>
      <path class="bn" d="m106.4759,105.9957c-.8688-.3912-2.0955-.0611-2.3848.8468-.1223.3839-.0663.798-.0576,1.2008.0449,2.0672-1.1684,3.9318-1.6736,5.9368-.0649.2577-.1182.5287-.0562.7871.0903.3767.4101.6574.7515.8405.5703.306,1.3399.3808,1.8197-.0536.3586-.3246.4614-.8354.6114-1.2953.3869-1.1859,1.2207-2.2201,2.2976-2.8497.5005-.2926,1.0939-.5452,1.3208-1.0787.1101-.259.1145-.5522.0702-.8301-.1248-.7826-.6141-1.2035-1.0754-1.7809-.5185-.6489-.8165-1.3605-1.6236-1.7239Z"/>
    </g>
  </g>
</svg>